<mxfile host="app.diagrams.net" agent="Mozilla/5.0 (Windows NT 10.0; Win64; x64) AppleWebKit/537.36 (KHTML, like Gecko) Chrome/135.0.0.0 Safari/537.36" version="26.2.12">
  <diagram name="Page-1" id="KWa05hD6m2ldtA0Ua-MG">
    <mxGraphModel dx="1426" dy="784" grid="1" gridSize="10" guides="1" tooltips="1" connect="1" arrows="1" fold="1" page="1" pageScale="1" pageWidth="827" pageHeight="1169" math="0" shadow="0">
      <root>
        <mxCell id="0" />
        <mxCell id="1" parent="0" />
        <mxCell id="LBeNDb-V28WhiPF_0cWA-1" value="" style="rounded=0;whiteSpace=wrap;html=1;fillColor=#CCCCCC;gradientColor=none;gradientDirection=radial;fillStyle=cross-hatch;" vertex="1" parent="1">
          <mxGeometry x="120" y="240" width="960" height="40" as="geometry" />
        </mxCell>
        <mxCell id="LBeNDb-V28WhiPF_0cWA-2" value="MSB" style="text;html=1;align=center;verticalAlign=middle;whiteSpace=wrap;rounded=0;" vertex="1" parent="1">
          <mxGeometry x="90" y="200" width="60" height="30" as="geometry" />
        </mxCell>
        <mxCell id="LBeNDb-V28WhiPF_0cWA-3" value="LSB" style="text;html=1;align=center;verticalAlign=middle;whiteSpace=wrap;rounded=0;" vertex="1" parent="1">
          <mxGeometry x="1050" y="200" width="60" height="30" as="geometry" />
        </mxCell>
        <mxCell id="LBeNDb-V28WhiPF_0cWA-4" value="" style="rounded=0;whiteSpace=wrap;html=1;fillColor=#E6E6E6;" vertex="1" parent="1">
          <mxGeometry x="1020" y="240" width="60" height="40" as="geometry" />
        </mxCell>
        <mxCell id="LBeNDb-V28WhiPF_0cWA-5" value="" style="rounded=0;whiteSpace=wrap;html=1;fillColor=#CCCCCC;" vertex="1" parent="1">
          <mxGeometry x="920" y="240" width="100" height="40" as="geometry" />
        </mxCell>
        <mxCell id="LBeNDb-V28WhiPF_0cWA-6" value="" style="rounded=0;whiteSpace=wrap;html=1;" vertex="1" parent="1">
          <mxGeometry x="840" y="240" width="80" height="40" as="geometry" />
        </mxCell>
        <mxCell id="LBeNDb-V28WhiPF_0cWA-7" value="" style="rounded=0;whiteSpace=wrap;html=1;" vertex="1" parent="1">
          <mxGeometry x="760" y="240" width="80" height="40" as="geometry" />
        </mxCell>
        <mxCell id="LBeNDb-V28WhiPF_0cWA-8" value="0" style="text;html=1;align=center;verticalAlign=middle;whiteSpace=wrap;rounded=0;" vertex="1" parent="1">
          <mxGeometry x="1050" y="290" width="60" height="30" as="geometry" />
        </mxCell>
        <mxCell id="LBeNDb-V28WhiPF_0cWA-9" value="4" style="text;html=1;align=center;verticalAlign=middle;whiteSpace=wrap;rounded=0;" vertex="1" parent="1">
          <mxGeometry x="970" y="290" width="60" height="30" as="geometry" />
        </mxCell>
        <mxCell id="LBeNDb-V28WhiPF_0cWA-10" value="8" style="text;html=1;align=center;verticalAlign=middle;whiteSpace=wrap;rounded=0;" vertex="1" parent="1">
          <mxGeometry x="890" y="290" width="60" height="30" as="geometry" />
        </mxCell>
        <mxCell id="LBeNDb-V28WhiPF_0cWA-11" value="12" style="text;html=1;align=center;verticalAlign=middle;whiteSpace=wrap;rounded=0;" vertex="1" parent="1">
          <mxGeometry x="810" y="290" width="60" height="30" as="geometry" />
        </mxCell>
        <mxCell id="LBeNDb-V28WhiPF_0cWA-12" value="16" style="text;html=1;align=center;verticalAlign=middle;whiteSpace=wrap;rounded=0;" vertex="1" parent="1">
          <mxGeometry x="730" y="290" width="60" height="30" as="geometry" />
        </mxCell>
        <mxCell id="LBeNDb-V28WhiPF_0cWA-13" value="20" style="text;html=1;align=center;verticalAlign=middle;whiteSpace=wrap;rounded=0;" vertex="1" parent="1">
          <mxGeometry x="650" y="290" width="60" height="30" as="geometry" />
        </mxCell>
        <mxCell id="LBeNDb-V28WhiPF_0cWA-14" value="24" style="text;html=1;align=center;verticalAlign=middle;whiteSpace=wrap;rounded=0;" vertex="1" parent="1">
          <mxGeometry x="570" y="290" width="60" height="30" as="geometry" />
        </mxCell>
        <mxCell id="LBeNDb-V28WhiPF_0cWA-15" value="28" style="text;html=1;align=center;verticalAlign=middle;whiteSpace=wrap;rounded=0;" vertex="1" parent="1">
          <mxGeometry x="490" y="290" width="60" height="30" as="geometry" />
        </mxCell>
        <mxCell id="LBeNDb-V28WhiPF_0cWA-16" value="32" style="text;html=1;align=center;verticalAlign=middle;whiteSpace=wrap;rounded=0;" vertex="1" parent="1">
          <mxGeometry x="410" y="290" width="60" height="30" as="geometry" />
        </mxCell>
        <mxCell id="LBeNDb-V28WhiPF_0cWA-17" value="36" style="text;html=1;align=center;verticalAlign=middle;whiteSpace=wrap;rounded=0;" vertex="1" parent="1">
          <mxGeometry x="330" y="290" width="60" height="30" as="geometry" />
        </mxCell>
        <mxCell id="LBeNDb-V28WhiPF_0cWA-18" value="40" style="text;html=1;align=center;verticalAlign=middle;whiteSpace=wrap;rounded=0;" vertex="1" parent="1">
          <mxGeometry x="250" y="290" width="60" height="30" as="geometry" />
        </mxCell>
        <mxCell id="LBeNDb-V28WhiPF_0cWA-19" value="44" style="text;html=1;align=center;verticalAlign=middle;whiteSpace=wrap;rounded=0;" vertex="1" parent="1">
          <mxGeometry x="170" y="290" width="60" height="30" as="geometry" />
        </mxCell>
        <mxCell id="LBeNDb-V28WhiPF_0cWA-20" value="48" style="text;html=1;align=center;verticalAlign=middle;whiteSpace=wrap;rounded=0;" vertex="1" parent="1">
          <mxGeometry x="90" y="290" width="60" height="30" as="geometry" />
        </mxCell>
        <mxCell id="LBeNDb-V28WhiPF_0cWA-21" value="Operand A = Expression, Operans B = Expression" style="text;html=1;align=center;verticalAlign=middle;whiteSpace=wrap;rounded=0;fontSize=14;" vertex="1" parent="1">
          <mxGeometry x="430" y="205" width="340" height="20" as="geometry" />
        </mxCell>
        <mxCell id="LBeNDb-V28WhiPF_0cWA-22" value="" style="rounded=0;whiteSpace=wrap;html=1;fillColor=#CCCCCC;gradientColor=none;gradientDirection=radial;fillStyle=cross-hatch;" vertex="1" parent="1">
          <mxGeometry x="120" y="370" width="960" height="40" as="geometry" />
        </mxCell>
        <mxCell id="LBeNDb-V28WhiPF_0cWA-23" value="MSB" style="text;html=1;align=center;verticalAlign=middle;whiteSpace=wrap;rounded=0;" vertex="1" parent="1">
          <mxGeometry x="90" y="330" width="60" height="30" as="geometry" />
        </mxCell>
        <mxCell id="LBeNDb-V28WhiPF_0cWA-24" value="LSB" style="text;html=1;align=center;verticalAlign=middle;whiteSpace=wrap;rounded=0;" vertex="1" parent="1">
          <mxGeometry x="1050" y="330" width="60" height="30" as="geometry" />
        </mxCell>
        <mxCell id="LBeNDb-V28WhiPF_0cWA-25" value="" style="rounded=0;whiteSpace=wrap;html=1;fillColor=#E6E6E6;" vertex="1" parent="1">
          <mxGeometry x="1020" y="370" width="60" height="40" as="geometry" />
        </mxCell>
        <mxCell id="LBeNDb-V28WhiPF_0cWA-26" value="" style="rounded=0;whiteSpace=wrap;html=1;fillColor=#CCCCCC;" vertex="1" parent="1">
          <mxGeometry x="920" y="370" width="100" height="40" as="geometry" />
        </mxCell>
        <mxCell id="LBeNDb-V28WhiPF_0cWA-27" value="" style="rounded=0;whiteSpace=wrap;html=1;" vertex="1" parent="1">
          <mxGeometry x="840" y="370" width="80" height="40" as="geometry" />
        </mxCell>
        <mxCell id="LBeNDb-V28WhiPF_0cWA-28" value="" style="rounded=0;whiteSpace=wrap;html=1;" vertex="1" parent="1">
          <mxGeometry x="120" y="370" width="640" height="40" as="geometry" />
        </mxCell>
        <mxCell id="LBeNDb-V28WhiPF_0cWA-29" value="0" style="text;html=1;align=center;verticalAlign=middle;whiteSpace=wrap;rounded=0;" vertex="1" parent="1">
          <mxGeometry x="1050" y="420" width="60" height="30" as="geometry" />
        </mxCell>
        <mxCell id="LBeNDb-V28WhiPF_0cWA-30" value="4" style="text;html=1;align=center;verticalAlign=middle;whiteSpace=wrap;rounded=0;" vertex="1" parent="1">
          <mxGeometry x="970" y="420" width="60" height="30" as="geometry" />
        </mxCell>
        <mxCell id="LBeNDb-V28WhiPF_0cWA-31" value="8" style="text;html=1;align=center;verticalAlign=middle;whiteSpace=wrap;rounded=0;" vertex="1" parent="1">
          <mxGeometry x="890" y="420" width="60" height="30" as="geometry" />
        </mxCell>
        <mxCell id="LBeNDb-V28WhiPF_0cWA-32" value="12" style="text;html=1;align=center;verticalAlign=middle;whiteSpace=wrap;rounded=0;" vertex="1" parent="1">
          <mxGeometry x="810" y="420" width="60" height="30" as="geometry" />
        </mxCell>
        <mxCell id="LBeNDb-V28WhiPF_0cWA-33" value="16" style="text;html=1;align=center;verticalAlign=middle;whiteSpace=wrap;rounded=0;" vertex="1" parent="1">
          <mxGeometry x="730" y="420" width="60" height="30" as="geometry" />
        </mxCell>
        <mxCell id="LBeNDb-V28WhiPF_0cWA-34" value="20" style="text;html=1;align=center;verticalAlign=middle;whiteSpace=wrap;rounded=0;" vertex="1" parent="1">
          <mxGeometry x="650" y="420" width="60" height="30" as="geometry" />
        </mxCell>
        <mxCell id="LBeNDb-V28WhiPF_0cWA-35" value="24" style="text;html=1;align=center;verticalAlign=middle;whiteSpace=wrap;rounded=0;" vertex="1" parent="1">
          <mxGeometry x="570" y="420" width="60" height="30" as="geometry" />
        </mxCell>
        <mxCell id="LBeNDb-V28WhiPF_0cWA-36" value="28" style="text;html=1;align=center;verticalAlign=middle;whiteSpace=wrap;rounded=0;" vertex="1" parent="1">
          <mxGeometry x="490" y="420" width="60" height="30" as="geometry" />
        </mxCell>
        <mxCell id="LBeNDb-V28WhiPF_0cWA-37" value="32" style="text;html=1;align=center;verticalAlign=middle;whiteSpace=wrap;rounded=0;" vertex="1" parent="1">
          <mxGeometry x="410" y="420" width="60" height="30" as="geometry" />
        </mxCell>
        <mxCell id="LBeNDb-V28WhiPF_0cWA-38" value="36" style="text;html=1;align=center;verticalAlign=middle;whiteSpace=wrap;rounded=0;" vertex="1" parent="1">
          <mxGeometry x="330" y="420" width="60" height="30" as="geometry" />
        </mxCell>
        <mxCell id="LBeNDb-V28WhiPF_0cWA-39" value="40" style="text;html=1;align=center;verticalAlign=middle;whiteSpace=wrap;rounded=0;" vertex="1" parent="1">
          <mxGeometry x="250" y="420" width="60" height="30" as="geometry" />
        </mxCell>
        <mxCell id="LBeNDb-V28WhiPF_0cWA-40" value="44" style="text;html=1;align=center;verticalAlign=middle;whiteSpace=wrap;rounded=0;" vertex="1" parent="1">
          <mxGeometry x="170" y="420" width="60" height="30" as="geometry" />
        </mxCell>
        <mxCell id="LBeNDb-V28WhiPF_0cWA-41" value="48" style="text;html=1;align=center;verticalAlign=middle;whiteSpace=wrap;rounded=0;" vertex="1" parent="1">
          <mxGeometry x="90" y="420" width="60" height="30" as="geometry" />
        </mxCell>
        <mxCell id="LBeNDb-V28WhiPF_0cWA-42" value="Operand A = Expression, Operand B = value" style="text;html=1;align=center;verticalAlign=middle;whiteSpace=wrap;rounded=0;fontSize=14;" vertex="1" parent="1">
          <mxGeometry x="430" y="340" width="340" height="20" as="geometry" />
        </mxCell>
        <mxCell id="LBeNDb-V28WhiPF_0cWA-43" value="Operand B" style="text;html=1;align=center;verticalAlign=middle;whiteSpace=wrap;rounded=0;" vertex="1" parent="1">
          <mxGeometry x="765" y="245" width="70" height="30" as="geometry" />
        </mxCell>
        <mxCell id="LBeNDb-V28WhiPF_0cWA-44" value="Operand A" style="text;html=1;align=center;verticalAlign=middle;whiteSpace=wrap;rounded=0;" vertex="1" parent="1">
          <mxGeometry x="850" y="245" width="60" height="30" as="geometry" />
        </mxCell>
        <mxCell id="LBeNDb-V28WhiPF_0cWA-45" value="Operand A" style="text;html=1;align=center;verticalAlign=middle;whiteSpace=wrap;rounded=0;" vertex="1" parent="1">
          <mxGeometry x="850" y="375" width="60" height="30" as="geometry" />
        </mxCell>
        <mxCell id="LBeNDb-V28WhiPF_0cWA-46" value="Operand B" style="text;html=1;align=center;verticalAlign=middle;whiteSpace=wrap;rounded=0;" vertex="1" parent="1">
          <mxGeometry x="405" y="375" width="70" height="30" as="geometry" />
        </mxCell>
        <mxCell id="LBeNDb-V28WhiPF_0cWA-47" value="ALU Instructions" style="text;html=1;align=center;verticalAlign=middle;whiteSpace=wrap;rounded=0;fontSize=20;" vertex="1" parent="1">
          <mxGeometry x="440" y="140" width="320" height="40" as="geometry" />
        </mxCell>
        <mxCell id="LBeNDb-V28WhiPF_0cWA-49" value="" style="rounded=0;whiteSpace=wrap;html=1;fillColor=#CCCCCC;gradientColor=none;gradientDirection=radial;fillStyle=cross-hatch;" vertex="1" parent="1">
          <mxGeometry x="120" y="580" width="960" height="40" as="geometry" />
        </mxCell>
        <mxCell id="LBeNDb-V28WhiPF_0cWA-50" value="MSB" style="text;html=1;align=center;verticalAlign=middle;whiteSpace=wrap;rounded=0;" vertex="1" parent="1">
          <mxGeometry x="90" y="540" width="60" height="30" as="geometry" />
        </mxCell>
        <mxCell id="LBeNDb-V28WhiPF_0cWA-51" value="LSB" style="text;html=1;align=center;verticalAlign=middle;whiteSpace=wrap;rounded=0;" vertex="1" parent="1">
          <mxGeometry x="1050" y="540" width="60" height="30" as="geometry" />
        </mxCell>
        <mxCell id="LBeNDb-V28WhiPF_0cWA-52" value="" style="rounded=0;whiteSpace=wrap;html=1;fillColor=#E6E6E6;" vertex="1" parent="1">
          <mxGeometry x="1020" y="580" width="60" height="40" as="geometry" />
        </mxCell>
        <mxCell id="LBeNDb-V28WhiPF_0cWA-53" value="" style="rounded=0;whiteSpace=wrap;html=1;fillColor=#CCCCCC;" vertex="1" parent="1">
          <mxGeometry x="920" y="580" width="100" height="40" as="geometry" />
        </mxCell>
        <mxCell id="LBeNDb-V28WhiPF_0cWA-54" value="" style="rounded=0;whiteSpace=wrap;html=1;" vertex="1" parent="1">
          <mxGeometry x="840" y="580" width="80" height="40" as="geometry" />
        </mxCell>
        <mxCell id="LBeNDb-V28WhiPF_0cWA-55" value="" style="rounded=0;whiteSpace=wrap;html=1;" vertex="1" parent="1">
          <mxGeometry x="760" y="580" width="80" height="40" as="geometry" />
        </mxCell>
        <mxCell id="LBeNDb-V28WhiPF_0cWA-56" value="0" style="text;html=1;align=center;verticalAlign=middle;whiteSpace=wrap;rounded=0;" vertex="1" parent="1">
          <mxGeometry x="1050" y="630" width="60" height="30" as="geometry" />
        </mxCell>
        <mxCell id="LBeNDb-V28WhiPF_0cWA-57" value="4" style="text;html=1;align=center;verticalAlign=middle;whiteSpace=wrap;rounded=0;" vertex="1" parent="1">
          <mxGeometry x="970" y="630" width="60" height="30" as="geometry" />
        </mxCell>
        <mxCell id="LBeNDb-V28WhiPF_0cWA-58" value="8" style="text;html=1;align=center;verticalAlign=middle;whiteSpace=wrap;rounded=0;" vertex="1" parent="1">
          <mxGeometry x="890" y="630" width="60" height="30" as="geometry" />
        </mxCell>
        <mxCell id="LBeNDb-V28WhiPF_0cWA-59" value="12" style="text;html=1;align=center;verticalAlign=middle;whiteSpace=wrap;rounded=0;" vertex="1" parent="1">
          <mxGeometry x="810" y="630" width="60" height="30" as="geometry" />
        </mxCell>
        <mxCell id="LBeNDb-V28WhiPF_0cWA-60" value="16" style="text;html=1;align=center;verticalAlign=middle;whiteSpace=wrap;rounded=0;" vertex="1" parent="1">
          <mxGeometry x="730" y="630" width="60" height="30" as="geometry" />
        </mxCell>
        <mxCell id="LBeNDb-V28WhiPF_0cWA-61" value="20" style="text;html=1;align=center;verticalAlign=middle;whiteSpace=wrap;rounded=0;" vertex="1" parent="1">
          <mxGeometry x="650" y="630" width="60" height="30" as="geometry" />
        </mxCell>
        <mxCell id="LBeNDb-V28WhiPF_0cWA-62" value="24" style="text;html=1;align=center;verticalAlign=middle;whiteSpace=wrap;rounded=0;" vertex="1" parent="1">
          <mxGeometry x="570" y="630" width="60" height="30" as="geometry" />
        </mxCell>
        <mxCell id="LBeNDb-V28WhiPF_0cWA-63" value="28" style="text;html=1;align=center;verticalAlign=middle;whiteSpace=wrap;rounded=0;" vertex="1" parent="1">
          <mxGeometry x="490" y="630" width="60" height="30" as="geometry" />
        </mxCell>
        <mxCell id="LBeNDb-V28WhiPF_0cWA-64" value="32" style="text;html=1;align=center;verticalAlign=middle;whiteSpace=wrap;rounded=0;" vertex="1" parent="1">
          <mxGeometry x="410" y="630" width="60" height="30" as="geometry" />
        </mxCell>
        <mxCell id="LBeNDb-V28WhiPF_0cWA-65" value="36" style="text;html=1;align=center;verticalAlign=middle;whiteSpace=wrap;rounded=0;" vertex="1" parent="1">
          <mxGeometry x="330" y="630" width="60" height="30" as="geometry" />
        </mxCell>
        <mxCell id="LBeNDb-V28WhiPF_0cWA-66" value="40" style="text;html=1;align=center;verticalAlign=middle;whiteSpace=wrap;rounded=0;" vertex="1" parent="1">
          <mxGeometry x="250" y="630" width="60" height="30" as="geometry" />
        </mxCell>
        <mxCell id="LBeNDb-V28WhiPF_0cWA-67" value="44" style="text;html=1;align=center;verticalAlign=middle;whiteSpace=wrap;rounded=0;" vertex="1" parent="1">
          <mxGeometry x="170" y="630" width="60" height="30" as="geometry" />
        </mxCell>
        <mxCell id="LBeNDb-V28WhiPF_0cWA-68" value="48" style="text;html=1;align=center;verticalAlign=middle;whiteSpace=wrap;rounded=0;" vertex="1" parent="1">
          <mxGeometry x="90" y="630" width="60" height="30" as="geometry" />
        </mxCell>
        <mxCell id="LBeNDb-V28WhiPF_0cWA-69" value="Operand A = Expression, Operans B = Expression" style="text;html=1;align=center;verticalAlign=middle;whiteSpace=wrap;rounded=0;fontSize=14;" vertex="1" parent="1">
          <mxGeometry x="430" y="545" width="340" height="20" as="geometry" />
        </mxCell>
        <mxCell id="LBeNDb-V28WhiPF_0cWA-70" value="" style="rounded=0;whiteSpace=wrap;html=1;fillColor=#CCCCCC;gradientColor=none;gradientDirection=radial;fillStyle=cross-hatch;" vertex="1" parent="1">
          <mxGeometry x="120" y="710" width="960" height="40" as="geometry" />
        </mxCell>
        <mxCell id="LBeNDb-V28WhiPF_0cWA-71" value="MSB" style="text;html=1;align=center;verticalAlign=middle;whiteSpace=wrap;rounded=0;" vertex="1" parent="1">
          <mxGeometry x="90" y="670" width="60" height="30" as="geometry" />
        </mxCell>
        <mxCell id="LBeNDb-V28WhiPF_0cWA-72" value="LSB" style="text;html=1;align=center;verticalAlign=middle;whiteSpace=wrap;rounded=0;" vertex="1" parent="1">
          <mxGeometry x="1050" y="670" width="60" height="30" as="geometry" />
        </mxCell>
        <mxCell id="LBeNDb-V28WhiPF_0cWA-73" value="" style="rounded=0;whiteSpace=wrap;html=1;fillColor=#E6E6E6;" vertex="1" parent="1">
          <mxGeometry x="1020" y="710" width="60" height="40" as="geometry" />
        </mxCell>
        <mxCell id="LBeNDb-V28WhiPF_0cWA-74" value="" style="rounded=0;whiteSpace=wrap;html=1;fillColor=#CCCCCC;" vertex="1" parent="1">
          <mxGeometry x="920" y="710" width="100" height="40" as="geometry" />
        </mxCell>
        <mxCell id="LBeNDb-V28WhiPF_0cWA-75" value="" style="rounded=0;whiteSpace=wrap;html=1;" vertex="1" parent="1">
          <mxGeometry x="840" y="710" width="80" height="40" as="geometry" />
        </mxCell>
        <mxCell id="LBeNDb-V28WhiPF_0cWA-76" value="" style="rounded=0;whiteSpace=wrap;html=1;" vertex="1" parent="1">
          <mxGeometry x="120" y="710" width="640" height="40" as="geometry" />
        </mxCell>
        <mxCell id="LBeNDb-V28WhiPF_0cWA-77" value="0" style="text;html=1;align=center;verticalAlign=middle;whiteSpace=wrap;rounded=0;" vertex="1" parent="1">
          <mxGeometry x="1050" y="760" width="60" height="30" as="geometry" />
        </mxCell>
        <mxCell id="LBeNDb-V28WhiPF_0cWA-78" value="4" style="text;html=1;align=center;verticalAlign=middle;whiteSpace=wrap;rounded=0;" vertex="1" parent="1">
          <mxGeometry x="970" y="760" width="60" height="30" as="geometry" />
        </mxCell>
        <mxCell id="LBeNDb-V28WhiPF_0cWA-79" value="8" style="text;html=1;align=center;verticalAlign=middle;whiteSpace=wrap;rounded=0;" vertex="1" parent="1">
          <mxGeometry x="890" y="760" width="60" height="30" as="geometry" />
        </mxCell>
        <mxCell id="LBeNDb-V28WhiPF_0cWA-80" value="12" style="text;html=1;align=center;verticalAlign=middle;whiteSpace=wrap;rounded=0;" vertex="1" parent="1">
          <mxGeometry x="810" y="760" width="60" height="30" as="geometry" />
        </mxCell>
        <mxCell id="LBeNDb-V28WhiPF_0cWA-81" value="16" style="text;html=1;align=center;verticalAlign=middle;whiteSpace=wrap;rounded=0;" vertex="1" parent="1">
          <mxGeometry x="730" y="760" width="60" height="30" as="geometry" />
        </mxCell>
        <mxCell id="LBeNDb-V28WhiPF_0cWA-82" value="20" style="text;html=1;align=center;verticalAlign=middle;whiteSpace=wrap;rounded=0;" vertex="1" parent="1">
          <mxGeometry x="650" y="760" width="60" height="30" as="geometry" />
        </mxCell>
        <mxCell id="LBeNDb-V28WhiPF_0cWA-83" value="24" style="text;html=1;align=center;verticalAlign=middle;whiteSpace=wrap;rounded=0;" vertex="1" parent="1">
          <mxGeometry x="570" y="760" width="60" height="30" as="geometry" />
        </mxCell>
        <mxCell id="LBeNDb-V28WhiPF_0cWA-84" value="28" style="text;html=1;align=center;verticalAlign=middle;whiteSpace=wrap;rounded=0;" vertex="1" parent="1">
          <mxGeometry x="490" y="760" width="60" height="30" as="geometry" />
        </mxCell>
        <mxCell id="LBeNDb-V28WhiPF_0cWA-85" value="32" style="text;html=1;align=center;verticalAlign=middle;whiteSpace=wrap;rounded=0;" vertex="1" parent="1">
          <mxGeometry x="410" y="760" width="60" height="30" as="geometry" />
        </mxCell>
        <mxCell id="LBeNDb-V28WhiPF_0cWA-86" value="36" style="text;html=1;align=center;verticalAlign=middle;whiteSpace=wrap;rounded=0;" vertex="1" parent="1">
          <mxGeometry x="330" y="760" width="60" height="30" as="geometry" />
        </mxCell>
        <mxCell id="LBeNDb-V28WhiPF_0cWA-87" value="40" style="text;html=1;align=center;verticalAlign=middle;whiteSpace=wrap;rounded=0;" vertex="1" parent="1">
          <mxGeometry x="250" y="760" width="60" height="30" as="geometry" />
        </mxCell>
        <mxCell id="LBeNDb-V28WhiPF_0cWA-88" value="44" style="text;html=1;align=center;verticalAlign=middle;whiteSpace=wrap;rounded=0;" vertex="1" parent="1">
          <mxGeometry x="170" y="760" width="60" height="30" as="geometry" />
        </mxCell>
        <mxCell id="LBeNDb-V28WhiPF_0cWA-89" value="48" style="text;html=1;align=center;verticalAlign=middle;whiteSpace=wrap;rounded=0;" vertex="1" parent="1">
          <mxGeometry x="90" y="760" width="60" height="30" as="geometry" />
        </mxCell>
        <mxCell id="LBeNDb-V28WhiPF_0cWA-90" value="Operand A = Expression, Operand B = value" style="text;html=1;align=center;verticalAlign=middle;whiteSpace=wrap;rounded=0;fontSize=14;" vertex="1" parent="1">
          <mxGeometry x="430" y="675" width="340" height="20" as="geometry" />
        </mxCell>
        <mxCell id="LBeNDb-V28WhiPF_0cWA-91" value="Operand B" style="text;html=1;align=center;verticalAlign=middle;whiteSpace=wrap;rounded=0;" vertex="1" parent="1">
          <mxGeometry x="765" y="585" width="70" height="30" as="geometry" />
        </mxCell>
        <mxCell id="LBeNDb-V28WhiPF_0cWA-92" value="Operand A" style="text;html=1;align=center;verticalAlign=middle;whiteSpace=wrap;rounded=0;" vertex="1" parent="1">
          <mxGeometry x="850" y="585" width="60" height="30" as="geometry" />
        </mxCell>
        <mxCell id="LBeNDb-V28WhiPF_0cWA-93" value="Operand A" style="text;html=1;align=center;verticalAlign=middle;whiteSpace=wrap;rounded=0;" vertex="1" parent="1">
          <mxGeometry x="850" y="715" width="60" height="30" as="geometry" />
        </mxCell>
        <mxCell id="LBeNDb-V28WhiPF_0cWA-94" value="Operand B" style="text;html=1;align=center;verticalAlign=middle;whiteSpace=wrap;rounded=0;" vertex="1" parent="1">
          <mxGeometry x="405" y="715" width="70" height="30" as="geometry" />
        </mxCell>
        <mxCell id="LBeNDb-V28WhiPF_0cWA-95" value="Memory &amp;amp; IO Operations" style="text;html=1;align=center;verticalAlign=middle;whiteSpace=wrap;rounded=0;fontSize=20;" vertex="1" parent="1">
          <mxGeometry x="440" y="480" width="320" height="40" as="geometry" />
        </mxCell>
        <mxCell id="LBeNDb-V28WhiPF_0cWA-97" value="" style="rounded=0;whiteSpace=wrap;html=1;fillColor=#CCCCCC;gradientColor=none;gradientDirection=radial;fillStyle=cross-hatch;" vertex="1" parent="1">
          <mxGeometry x="120" y="840" width="960" height="40" as="geometry" />
        </mxCell>
        <mxCell id="LBeNDb-V28WhiPF_0cWA-98" value="MSB" style="text;html=1;align=center;verticalAlign=middle;whiteSpace=wrap;rounded=0;" vertex="1" parent="1">
          <mxGeometry x="90" y="800" width="60" height="30" as="geometry" />
        </mxCell>
        <mxCell id="LBeNDb-V28WhiPF_0cWA-99" value="LSB" style="text;html=1;align=center;verticalAlign=middle;whiteSpace=wrap;rounded=0;" vertex="1" parent="1">
          <mxGeometry x="1050" y="800" width="60" height="30" as="geometry" />
        </mxCell>
        <mxCell id="LBeNDb-V28WhiPF_0cWA-100" value="" style="rounded=0;whiteSpace=wrap;html=1;fillColor=#E6E6E6;" vertex="1" parent="1">
          <mxGeometry x="1020" y="840" width="60" height="40" as="geometry" />
        </mxCell>
        <mxCell id="LBeNDb-V28WhiPF_0cWA-101" value="" style="rounded=0;whiteSpace=wrap;html=1;fillColor=#CCCCCC;" vertex="1" parent="1">
          <mxGeometry x="920" y="840" width="100" height="40" as="geometry" />
        </mxCell>
        <mxCell id="LBeNDb-V28WhiPF_0cWA-102" value="" style="rounded=0;whiteSpace=wrap;html=1;" vertex="1" parent="1">
          <mxGeometry x="840" y="840" width="80" height="40" as="geometry" />
        </mxCell>
        <mxCell id="LBeNDb-V28WhiPF_0cWA-103" value="" style="rounded=0;whiteSpace=wrap;html=1;" vertex="1" parent="1">
          <mxGeometry x="600" y="840" width="160" height="40" as="geometry" />
        </mxCell>
        <mxCell id="LBeNDb-V28WhiPF_0cWA-104" value="0" style="text;html=1;align=center;verticalAlign=middle;whiteSpace=wrap;rounded=0;" vertex="1" parent="1">
          <mxGeometry x="1050" y="890" width="60" height="30" as="geometry" />
        </mxCell>
        <mxCell id="LBeNDb-V28WhiPF_0cWA-105" value="4" style="text;html=1;align=center;verticalAlign=middle;whiteSpace=wrap;rounded=0;" vertex="1" parent="1">
          <mxGeometry x="970" y="890" width="60" height="30" as="geometry" />
        </mxCell>
        <mxCell id="LBeNDb-V28WhiPF_0cWA-106" value="8" style="text;html=1;align=center;verticalAlign=middle;whiteSpace=wrap;rounded=0;" vertex="1" parent="1">
          <mxGeometry x="890" y="890" width="60" height="30" as="geometry" />
        </mxCell>
        <mxCell id="LBeNDb-V28WhiPF_0cWA-107" value="12" style="text;html=1;align=center;verticalAlign=middle;whiteSpace=wrap;rounded=0;" vertex="1" parent="1">
          <mxGeometry x="810" y="890" width="60" height="30" as="geometry" />
        </mxCell>
        <mxCell id="LBeNDb-V28WhiPF_0cWA-108" value="16" style="text;html=1;align=center;verticalAlign=middle;whiteSpace=wrap;rounded=0;" vertex="1" parent="1">
          <mxGeometry x="730" y="890" width="60" height="30" as="geometry" />
        </mxCell>
        <mxCell id="LBeNDb-V28WhiPF_0cWA-109" value="20" style="text;html=1;align=center;verticalAlign=middle;whiteSpace=wrap;rounded=0;" vertex="1" parent="1">
          <mxGeometry x="650" y="890" width="60" height="30" as="geometry" />
        </mxCell>
        <mxCell id="LBeNDb-V28WhiPF_0cWA-110" value="24" style="text;html=1;align=center;verticalAlign=middle;whiteSpace=wrap;rounded=0;" vertex="1" parent="1">
          <mxGeometry x="570" y="890" width="60" height="30" as="geometry" />
        </mxCell>
        <mxCell id="LBeNDb-V28WhiPF_0cWA-111" value="28" style="text;html=1;align=center;verticalAlign=middle;whiteSpace=wrap;rounded=0;" vertex="1" parent="1">
          <mxGeometry x="490" y="890" width="60" height="30" as="geometry" />
        </mxCell>
        <mxCell id="LBeNDb-V28WhiPF_0cWA-112" value="32" style="text;html=1;align=center;verticalAlign=middle;whiteSpace=wrap;rounded=0;" vertex="1" parent="1">
          <mxGeometry x="410" y="890" width="60" height="30" as="geometry" />
        </mxCell>
        <mxCell id="LBeNDb-V28WhiPF_0cWA-113" value="36" style="text;html=1;align=center;verticalAlign=middle;whiteSpace=wrap;rounded=0;" vertex="1" parent="1">
          <mxGeometry x="330" y="890" width="60" height="30" as="geometry" />
        </mxCell>
        <mxCell id="LBeNDb-V28WhiPF_0cWA-114" value="40" style="text;html=1;align=center;verticalAlign=middle;whiteSpace=wrap;rounded=0;" vertex="1" parent="1">
          <mxGeometry x="250" y="890" width="60" height="30" as="geometry" />
        </mxCell>
        <mxCell id="LBeNDb-V28WhiPF_0cWA-115" value="44" style="text;html=1;align=center;verticalAlign=middle;whiteSpace=wrap;rounded=0;" vertex="1" parent="1">
          <mxGeometry x="170" y="890" width="60" height="30" as="geometry" />
        </mxCell>
        <mxCell id="LBeNDb-V28WhiPF_0cWA-116" value="48" style="text;html=1;align=center;verticalAlign=middle;whiteSpace=wrap;rounded=0;" vertex="1" parent="1">
          <mxGeometry x="90" y="890" width="60" height="30" as="geometry" />
        </mxCell>
        <mxCell id="LBeNDb-V28WhiPF_0cWA-117" value="Operand A = Expression, Operand B = value" style="text;html=1;align=center;verticalAlign=middle;whiteSpace=wrap;rounded=0;fontSize=14;" vertex="1" parent="1">
          <mxGeometry x="430" y="805" width="340" height="20" as="geometry" />
        </mxCell>
        <mxCell id="LBeNDb-V28WhiPF_0cWA-118" value="Operand A" style="text;html=1;align=center;verticalAlign=middle;whiteSpace=wrap;rounded=0;" vertex="1" parent="1">
          <mxGeometry x="850" y="845" width="60" height="30" as="geometry" />
        </mxCell>
        <mxCell id="LBeNDb-V28WhiPF_0cWA-119" value="Operand B" style="text;html=1;align=center;verticalAlign=middle;whiteSpace=wrap;rounded=0;" vertex="1" parent="1">
          <mxGeometry x="645" y="845" width="70" height="30" as="geometry" />
        </mxCell>
        <mxCell id="LBeNDb-V28WhiPF_0cWA-120" value="" style="rounded=0;whiteSpace=wrap;html=1;fillColor=#CCCCCC;gradientColor=none;gradientDirection=radial;fillStyle=cross-hatch;" vertex="1" parent="1">
          <mxGeometry x="120" y="1050" width="960" height="40" as="geometry" />
        </mxCell>
        <mxCell id="LBeNDb-V28WhiPF_0cWA-121" value="MSB" style="text;html=1;align=center;verticalAlign=middle;whiteSpace=wrap;rounded=0;" vertex="1" parent="1">
          <mxGeometry x="90" y="1010" width="60" height="30" as="geometry" />
        </mxCell>
        <mxCell id="LBeNDb-V28WhiPF_0cWA-122" value="LSB" style="text;html=1;align=center;verticalAlign=middle;whiteSpace=wrap;rounded=0;" vertex="1" parent="1">
          <mxGeometry x="1050" y="1010" width="60" height="30" as="geometry" />
        </mxCell>
        <mxCell id="LBeNDb-V28WhiPF_0cWA-123" value="" style="rounded=0;whiteSpace=wrap;html=1;fillColor=#E6E6E6;" vertex="1" parent="1">
          <mxGeometry x="1020" y="1050" width="60" height="40" as="geometry" />
        </mxCell>
        <mxCell id="LBeNDb-V28WhiPF_0cWA-124" value="" style="rounded=0;whiteSpace=wrap;html=1;fillColor=#CCCCCC;" vertex="1" parent="1">
          <mxGeometry x="920" y="1050" width="100" height="40" as="geometry" />
        </mxCell>
        <mxCell id="LBeNDb-V28WhiPF_0cWA-125" value="" style="rounded=0;whiteSpace=wrap;html=1;" vertex="1" parent="1">
          <mxGeometry x="280" y="1050" width="640" height="40" as="geometry" />
        </mxCell>
        <mxCell id="LBeNDb-V28WhiPF_0cWA-127" value="0" style="text;html=1;align=center;verticalAlign=middle;whiteSpace=wrap;rounded=0;" vertex="1" parent="1">
          <mxGeometry x="1050" y="1100" width="60" height="30" as="geometry" />
        </mxCell>
        <mxCell id="LBeNDb-V28WhiPF_0cWA-128" value="4" style="text;html=1;align=center;verticalAlign=middle;whiteSpace=wrap;rounded=0;" vertex="1" parent="1">
          <mxGeometry x="970" y="1100" width="60" height="30" as="geometry" />
        </mxCell>
        <mxCell id="LBeNDb-V28WhiPF_0cWA-129" value="8" style="text;html=1;align=center;verticalAlign=middle;whiteSpace=wrap;rounded=0;" vertex="1" parent="1">
          <mxGeometry x="890" y="1100" width="60" height="30" as="geometry" />
        </mxCell>
        <mxCell id="LBeNDb-V28WhiPF_0cWA-130" value="12" style="text;html=1;align=center;verticalAlign=middle;whiteSpace=wrap;rounded=0;" vertex="1" parent="1">
          <mxGeometry x="810" y="1100" width="60" height="30" as="geometry" />
        </mxCell>
        <mxCell id="LBeNDb-V28WhiPF_0cWA-131" value="16" style="text;html=1;align=center;verticalAlign=middle;whiteSpace=wrap;rounded=0;" vertex="1" parent="1">
          <mxGeometry x="730" y="1100" width="60" height="30" as="geometry" />
        </mxCell>
        <mxCell id="LBeNDb-V28WhiPF_0cWA-132" value="20" style="text;html=1;align=center;verticalAlign=middle;whiteSpace=wrap;rounded=0;" vertex="1" parent="1">
          <mxGeometry x="650" y="1100" width="60" height="30" as="geometry" />
        </mxCell>
        <mxCell id="LBeNDb-V28WhiPF_0cWA-133" value="24" style="text;html=1;align=center;verticalAlign=middle;whiteSpace=wrap;rounded=0;" vertex="1" parent="1">
          <mxGeometry x="570" y="1100" width="60" height="30" as="geometry" />
        </mxCell>
        <mxCell id="LBeNDb-V28WhiPF_0cWA-134" value="28" style="text;html=1;align=center;verticalAlign=middle;whiteSpace=wrap;rounded=0;" vertex="1" parent="1">
          <mxGeometry x="490" y="1100" width="60" height="30" as="geometry" />
        </mxCell>
        <mxCell id="LBeNDb-V28WhiPF_0cWA-135" value="32" style="text;html=1;align=center;verticalAlign=middle;whiteSpace=wrap;rounded=0;" vertex="1" parent="1">
          <mxGeometry x="410" y="1100" width="60" height="30" as="geometry" />
        </mxCell>
        <mxCell id="LBeNDb-V28WhiPF_0cWA-136" value="36" style="text;html=1;align=center;verticalAlign=middle;whiteSpace=wrap;rounded=0;" vertex="1" parent="1">
          <mxGeometry x="330" y="1100" width="60" height="30" as="geometry" />
        </mxCell>
        <mxCell id="LBeNDb-V28WhiPF_0cWA-137" value="40" style="text;html=1;align=center;verticalAlign=middle;whiteSpace=wrap;rounded=0;" vertex="1" parent="1">
          <mxGeometry x="250" y="1100" width="60" height="30" as="geometry" />
        </mxCell>
        <mxCell id="LBeNDb-V28WhiPF_0cWA-138" value="44" style="text;html=1;align=center;verticalAlign=middle;whiteSpace=wrap;rounded=0;" vertex="1" parent="1">
          <mxGeometry x="170" y="1100" width="60" height="30" as="geometry" />
        </mxCell>
        <mxCell id="LBeNDb-V28WhiPF_0cWA-139" value="48" style="text;html=1;align=center;verticalAlign=middle;whiteSpace=wrap;rounded=0;" vertex="1" parent="1">
          <mxGeometry x="90" y="1100" width="60" height="30" as="geometry" />
        </mxCell>
        <mxCell id="LBeNDb-V28WhiPF_0cWA-140" value="Operand A = Value" style="text;html=1;align=center;verticalAlign=middle;whiteSpace=wrap;rounded=0;fontSize=14;" vertex="1" parent="1">
          <mxGeometry x="430" y="1015" width="340" height="20" as="geometry" />
        </mxCell>
        <mxCell id="LBeNDb-V28WhiPF_0cWA-141" value="" style="rounded=0;whiteSpace=wrap;html=1;fillColor=#CCCCCC;gradientColor=none;gradientDirection=radial;fillStyle=cross-hatch;" vertex="1" parent="1">
          <mxGeometry x="120" y="1180" width="960" height="40" as="geometry" />
        </mxCell>
        <mxCell id="LBeNDb-V28WhiPF_0cWA-142" value="MSB" style="text;html=1;align=center;verticalAlign=middle;whiteSpace=wrap;rounded=0;" vertex="1" parent="1">
          <mxGeometry x="90" y="1140" width="60" height="30" as="geometry" />
        </mxCell>
        <mxCell id="LBeNDb-V28WhiPF_0cWA-143" value="LSB" style="text;html=1;align=center;verticalAlign=middle;whiteSpace=wrap;rounded=0;" vertex="1" parent="1">
          <mxGeometry x="1050" y="1140" width="60" height="30" as="geometry" />
        </mxCell>
        <mxCell id="LBeNDb-V28WhiPF_0cWA-144" value="" style="rounded=0;whiteSpace=wrap;html=1;fillColor=#E6E6E6;" vertex="1" parent="1">
          <mxGeometry x="1020" y="1180" width="60" height="40" as="geometry" />
        </mxCell>
        <mxCell id="LBeNDb-V28WhiPF_0cWA-145" value="" style="rounded=0;whiteSpace=wrap;html=1;fillColor=#CCCCCC;" vertex="1" parent="1">
          <mxGeometry x="920" y="1180" width="100" height="40" as="geometry" />
        </mxCell>
        <mxCell id="LBeNDb-V28WhiPF_0cWA-148" value="0" style="text;html=1;align=center;verticalAlign=middle;whiteSpace=wrap;rounded=0;" vertex="1" parent="1">
          <mxGeometry x="1050" y="1230" width="60" height="30" as="geometry" />
        </mxCell>
        <mxCell id="LBeNDb-V28WhiPF_0cWA-149" value="4" style="text;html=1;align=center;verticalAlign=middle;whiteSpace=wrap;rounded=0;" vertex="1" parent="1">
          <mxGeometry x="970" y="1230" width="60" height="30" as="geometry" />
        </mxCell>
        <mxCell id="LBeNDb-V28WhiPF_0cWA-150" value="8" style="text;html=1;align=center;verticalAlign=middle;whiteSpace=wrap;rounded=0;" vertex="1" parent="1">
          <mxGeometry x="890" y="1230" width="60" height="30" as="geometry" />
        </mxCell>
        <mxCell id="LBeNDb-V28WhiPF_0cWA-151" value="12" style="text;html=1;align=center;verticalAlign=middle;whiteSpace=wrap;rounded=0;" vertex="1" parent="1">
          <mxGeometry x="810" y="1230" width="60" height="30" as="geometry" />
        </mxCell>
        <mxCell id="LBeNDb-V28WhiPF_0cWA-152" value="16" style="text;html=1;align=center;verticalAlign=middle;whiteSpace=wrap;rounded=0;" vertex="1" parent="1">
          <mxGeometry x="730" y="1230" width="60" height="30" as="geometry" />
        </mxCell>
        <mxCell id="LBeNDb-V28WhiPF_0cWA-153" value="20" style="text;html=1;align=center;verticalAlign=middle;whiteSpace=wrap;rounded=0;" vertex="1" parent="1">
          <mxGeometry x="650" y="1230" width="60" height="30" as="geometry" />
        </mxCell>
        <mxCell id="LBeNDb-V28WhiPF_0cWA-154" value="24" style="text;html=1;align=center;verticalAlign=middle;whiteSpace=wrap;rounded=0;" vertex="1" parent="1">
          <mxGeometry x="570" y="1230" width="60" height="30" as="geometry" />
        </mxCell>
        <mxCell id="LBeNDb-V28WhiPF_0cWA-155" value="28" style="text;html=1;align=center;verticalAlign=middle;whiteSpace=wrap;rounded=0;" vertex="1" parent="1">
          <mxGeometry x="490" y="1230" width="60" height="30" as="geometry" />
        </mxCell>
        <mxCell id="LBeNDb-V28WhiPF_0cWA-156" value="32" style="text;html=1;align=center;verticalAlign=middle;whiteSpace=wrap;rounded=0;" vertex="1" parent="1">
          <mxGeometry x="410" y="1230" width="60" height="30" as="geometry" />
        </mxCell>
        <mxCell id="LBeNDb-V28WhiPF_0cWA-157" value="36" style="text;html=1;align=center;verticalAlign=middle;whiteSpace=wrap;rounded=0;" vertex="1" parent="1">
          <mxGeometry x="330" y="1230" width="60" height="30" as="geometry" />
        </mxCell>
        <mxCell id="LBeNDb-V28WhiPF_0cWA-158" value="40" style="text;html=1;align=center;verticalAlign=middle;whiteSpace=wrap;rounded=0;" vertex="1" parent="1">
          <mxGeometry x="250" y="1230" width="60" height="30" as="geometry" />
        </mxCell>
        <mxCell id="LBeNDb-V28WhiPF_0cWA-159" value="44" style="text;html=1;align=center;verticalAlign=middle;whiteSpace=wrap;rounded=0;" vertex="1" parent="1">
          <mxGeometry x="170" y="1230" width="60" height="30" as="geometry" />
        </mxCell>
        <mxCell id="LBeNDb-V28WhiPF_0cWA-160" value="48" style="text;html=1;align=center;verticalAlign=middle;whiteSpace=wrap;rounded=0;" vertex="1" parent="1">
          <mxGeometry x="90" y="1230" width="60" height="30" as="geometry" />
        </mxCell>
        <mxCell id="LBeNDb-V28WhiPF_0cWA-161" value="No Operand" style="text;html=1;align=center;verticalAlign=middle;whiteSpace=wrap;rounded=0;fontSize=14;" vertex="1" parent="1">
          <mxGeometry x="430" y="1145" width="340" height="20" as="geometry" />
        </mxCell>
        <mxCell id="LBeNDb-V28WhiPF_0cWA-163" value="Operand A" style="text;html=1;align=center;verticalAlign=middle;whiteSpace=wrap;rounded=0;" vertex="1" parent="1">
          <mxGeometry x="570" y="1055" width="60" height="30" as="geometry" />
        </mxCell>
        <mxCell id="LBeNDb-V28WhiPF_0cWA-166" value="Program Flow Control Instructions" style="text;html=1;align=center;verticalAlign=middle;whiteSpace=wrap;rounded=0;fontSize=20;" vertex="1" parent="1">
          <mxGeometry x="440" y="950" width="320" height="40" as="geometry" />
        </mxCell>
      </root>
    </mxGraphModel>
  </diagram>
</mxfile>
